# xmcd
#
# Track frame offsets: 
#        150
#        11812
#        22331
#        33131
#        53456
#        66168
#        83418
#        92400
#        108300
#        129318
#        143756
#        154668
#        173323
#        188718
#        205912
#
# Disc length: 2904 seconds
#
# Revision: 0
# Processed by: cddbd v1.5.2PL0 Copyright (c) Steve Scherf et al.
# Submitted via: ExactAudioCopyFreeDBPlugin 1.0
#
DISCID=af0b560f
DTITLE=Various Artist - Let's Shake Hands
DYEAR=2019
DGENRE=
TTITLE0=The Greenhornes - Saying Goodbye
TTITLE1=Jake Wood - Born To Wander
TTITLE2=The Raconteurs - Hey Gyp (Dig The Slowness)
TTITLE3=Bush Tetras - Neverending Hum
TTITLE4=A-Moms - Strawberry Cheesecake
TTITLE5=Todd Albright - Savannah Mama
TTITLE6=The White Stripes - Let's Shake Hands (Alternate Take)
TTITLE7=Teddy and The Rough Riders - I Found Somethin'
TTITLE8=Lillie Mae - Loaner
TTITLE9=Joshua Hedley - Mr. Jukebox
TTITLE10=The Dead Weather - Forever My Queen
TTITLE11=Alabama Shakes - Be Mine
TTITLE12=Kelley Stoltz - Storms
TTITLE13=David Nance Group - Meanwhile
TTITLE14=The White Stripes - Signed D.C.
EXTD=
EXTT0=
EXTT1=
EXTT2=
EXTT3=
EXTT4=
EXTT5=
EXTT6=
EXTT7=
EXTT8=
EXTT9=
EXTT10=
EXTT11=
EXTT12=
EXTT13=
EXTT14=
PLAYORDER=
